{
    "asset" : {
        "generator" : "Khronos glTF Blender I/O v1.5.17",
        "version" : "2.0"
    },
    "scene" : 0,
    "scenes" : [
        {
            "name" : "Scene",
            "nodes" : [
                0,
                1,
                2,
                3
            ]
        }
    ],
    "nodes" : [
        {
            "mesh" : 0,
            "name" : "PrevBtn",
            "rotation" : [
                0.9128491878509521,
                -0.14234021306037903,
                -0.05895905941724777,
                0.378113329410553
            ],
            "scale" : [
                -0.08230878412723541,
                0.08230877667665482,
                0.08230877667665482
            ],
            "translation" : [
                0.05362725257873535,
                -0.0552796870470047,
                2.5
            ]
        },
        {
            "mesh" : 1,
            "name" : "NextBtn",
            "rotation" : [
                -0.3781143128871918,
                0.05895921215415001,
                -0.14234012365341187,
                0.9128486514091492
            ],
            "scale" : [
                0.08230878412723541,
                0.08230878412723541,
                0.08230878412723541
            ],
            "translation" : [
                0.05362725257873535,
                -0.0552796870470047,
                -2.5
            ]
        },
        {
            "mesh" : 2,
            "name" : "Cylinder",
            "scale" : [
                1.3702878952026367,
                1,
                1.3702878952026367
            ]
        },
        {
            "mesh" : 3,
            "name" : "Cube",
            "scale" : [
                0.12590031325817108,
                0.12590031325817108,
                0.12590031325817108
            ],
            "translation" : [
                1.378843069076538,
                -0.009915024042129517,
                -0.010864436626434326
            ]
        }
    ],
    "meshes" : [
        {
            "name" : "Cube",
            "primitives" : [
                {
                    "attributes" : {
                        "POSITION" : 0,
                        "NORMAL" : 1,
                        "TEXCOORD_0" : 2
                    },
                    "indices" : 3
                }
            ]
        },
        {
            "name" : "Cube.001",
            "primitives" : [
                {
                    "attributes" : {
                        "POSITION" : 4,
                        "NORMAL" : 5,
                        "TEXCOORD_0" : 6
                    },
                    "indices" : 3
                }
            ]
        },
        {
            "name" : "Cylinder.003",
            "primitives" : [
                {
                    "attributes" : {
                        "POSITION" : 7,
                        "NORMAL" : 8,
                        "TEXCOORD_0" : 9
                    },
                    "indices" : 10
                }
            ]
        },
        {
            "name" : "Cube.007",
            "primitives" : [
                {
                    "attributes" : {
                        "POSITION" : 11,
                        "NORMAL" : 12,
                        "TEXCOORD_0" : 13
                    },
                    "indices" : 14
                }
            ]
        }
    ],
    "accessors" : [
        {
            "bufferView" : 0,
            "componentType" : 5126,
            "count" : 1100,
            "max" : [
                1,
                1,
                4.556474685668945
            ],
            "min" : [
                -1,
                -4.556474685668945,
                -1
            ],
            "type" : "VEC3"
        },
        {
            "bufferView" : 1,
            "componentType" : 5126,
            "count" : 1100,
            "type" : "VEC3"
        },
        {
            "bufferView" : 2,
            "componentType" : 5126,
            "count" : 1100,
            "type" : "VEC2"
        },
        {
            "bufferView" : 3,
            "componentType" : 5123,
            "count" : 1668,
            "type" : "SCALAR"
        },
        {
            "bufferView" : 4,
            "componentType" : 5126,
            "count" : 1100,
            "max" : [
                1,
                1,
                4.556474685668945
            ],
            "min" : [
                -1,
                -4.556474685668945,
                -1
            ],
            "type" : "VEC3"
        },
        {
            "bufferView" : 5,
            "componentType" : 5126,
            "count" : 1100,
            "type" : "VEC3"
        },
        {
            "bufferView" : 6,
            "componentType" : 5126,
            "count" : 1100,
            "type" : "VEC2"
        },
        {
            "bufferView" : 7,
            "componentType" : 5126,
            "count" : 65200,
            "max" : [
                1,
                0.20000000298023224,
                1
            ],
            "min" : [
                -1,
                -0.20000000298023224,
                -1
            ],
            "type" : "VEC3"
        },
        {
            "bufferView" : 8,
            "componentType" : 5126,
            "count" : 65200,
            "type" : "VEC3"
        },
        {
            "bufferView" : 9,
            "componentType" : 5126,
            "count" : 65200,
            "type" : "VEC2"
        },
        {
            "bufferView" : 10,
            "componentType" : 5123,
            "count" : 98388,
            "type" : "SCALAR"
        },
        {
            "bufferView" : 11,
            "componentType" : 5126,
            "count" : 876,
            "max" : [
                1,
                0.9761258363723755,
                1
            ],
            "min" : [
                -1,
                -0.9768694639205933,
                -1
            ],
            "type" : "VEC3"
        },
        {
            "bufferView" : 12,
            "componentType" : 5126,
            "count" : 876,
            "type" : "VEC3"
        },
        {
            "bufferView" : 13,
            "componentType" : 5126,
            "count" : 876,
            "type" : "VEC2"
        },
        {
            "bufferView" : 14,
            "componentType" : 5123,
            "count" : 1764,
            "type" : "SCALAR"
        }
    ],
    "bufferViews" : [
        {
            "buffer" : 0,
            "byteLength" : 13200,
            "byteOffset" : 0
        },
        {
            "buffer" : 0,
            "byteLength" : 13200,
            "byteOffset" : 13200
        },
        {
            "buffer" : 0,
            "byteLength" : 8800,
            "byteOffset" : 26400
        },
        {
            "buffer" : 0,
            "byteLength" : 3336,
            "byteOffset" : 35200
        },
        {
            "buffer" : 0,
            "byteLength" : 13200,
            "byteOffset" : 38536
        },
        {
            "buffer" : 0,
            "byteLength" : 13200,
            "byteOffset" : 51736
        },
        {
            "buffer" : 0,
            "byteLength" : 8800,
            "byteOffset" : 64936
        },
        {
            "buffer" : 0,
            "byteLength" : 782400,
            "byteOffset" : 73736
        },
        {
            "buffer" : 0,
            "byteLength" : 782400,
            "byteOffset" : 856136
        },
        {
            "buffer" : 0,
            "byteLength" : 521600,
            "byteOffset" : 1638536
        },
        {
            "buffer" : 0,
            "byteLength" : 196776,
            "byteOffset" : 2160136
        },
        {
            "buffer" : 0,
            "byteLength" : 10512,
            "byteOffset" : 2356912
        },
        {
            "buffer" : 0,
            "byteLength" : 10512,
            "byteOffset" : 2367424
        },
        {
            "buffer" : 0,
            "byteLength" : 7008,
            "byteOffset" : 2377936
        },
        {
            "buffer" : 0,
            "byteLength" : 3528,
            "byteOffset" : 2384944
        }
    ],
    "buffers" : [
        {
            "byteLength" : 2388472,
            "uri" : "data:application/octet-stream;base64,"
        }
    ]
}
