{
    "asset" : {
        "generator" : "Khronos glTF Blender I/O v1.5.17",
        "version" : "2.0"
    },
    "scene" : 0,
    "scenes" : [
        {
            "name" : "Scene",
            "nodes" : [
                0,
                1,
                2
            ]
        }
    ],
    "nodes" : [
        {
            "name" : "Camera",
            "rotation" : [
                0.483536034822464,
                0.33687159419059753,
                -0.20870360732078552,
                0.7804827094078064
            ],
            "translation" : [
                7.358891487121582,
                4.958309173583984,
                6.925790786743164
            ]
        },
        {
            "name" : "Light.001",
            "rotation" : [
                0.16907575726509094,
                0.7558803558349609,
                -0.27217137813568115,
                0.570947527885437
            ],
            "translation" : [
                0.6563802361488342,
                4.329606056213379,
                3.7202954292297363
            ]
        },
        {
            "mesh" : 0,
            "name" : "Cube",
            "scale" : [
                8.009074211120605,
                4.505104064941406,
                2.3026742935180664
            ],
            "translation" : [
                0.6827301979064941,
                4.760046482086182,
                -0.5489041209220886
            ]
        }
    ],
    "materials" : [
        {
            "doubleSided" : true,
            "name" : "Material.003",
            "pbrMetallicRoughness" : {
                "baseColorFactor" : [
                    0.05603441223502159,
                    0.05054487660527229,
                    0.1981092244386673,
                    1
                ],
                "metallicFactor" : 0.49090954661369324,
                "roughnessFactor" : 0.6909090876579285
            }
        }
    ],
    "meshes" : [
        {
            "name" : "Cube.002",
            "primitives" : [
                {
                    "attributes" : {
                        "POSITION" : 0,
                        "NORMAL" : 1,
                        "TEXCOORD_0" : 2
                    },
                    "indices" : 3,
                    "material" : 0
                }
            ]
        }
    ],
    "accessors" : [
        {
            "bufferView" : 0,
            "componentType" : 5126,
            "count" : 167,
            "max" : [
                1,
                1,
                1.092563271522522
            ],
            "min" : [
                -1,
                -1,
                -1
            ],
            "type" : "VEC3"
        },
        {
            "bufferView" : 1,
            "componentType" : 5126,
            "count" : 167,
            "type" : "VEC3"
        },
        {
            "bufferView" : 2,
            "componentType" : 5126,
            "count" : 167,
            "type" : "VEC2"
        },
        {
            "bufferView" : 3,
            "componentType" : 5123,
            "count" : 390,
            "type" : "SCALAR"
        }
    ],
    "bufferViews" : [
        {
            "buffer" : 0,
            "byteLength" : 2004,
            "byteOffset" : 0
        },
        {
            "buffer" : 0,
            "byteLength" : 2004,
            "byteOffset" : 2004
        },
        {
            "buffer" : 0,
            "byteLength" : 1336,
            "byteOffset" : 4008
        },
        {
            "buffer" : 0,
            "byteLength" : 780,
            "byteOffset" : 5344
        }
    ],
    "buffers" : [
        {
            "byteLength" : 6124,
            "uri" : "data:application/octet-stream;base64,"
        }
    ]
}
