{
    "asset" : {
        "generator" : "Khronos glTF Blender I/O v1.5.17",
        "version" : "2.0"
    },
    "scene" : 0,
    "scenes" : [
        {
            "name" : "Scene",
            "nodes" : [
                0,
                1,
                2,
                3
            ]
        }
    ],
    "nodes" : [
        {
            "name" : "Camera",
            "rotation" : [
                0.483536034822464,
                0.33687159419059753,
                -0.20870360732078552,
                0.7804827094078064
            ],
            "translation" : [
                7.358891487121582,
                4.958309173583984,
                6.925790786743164
            ]
        },
        {
            "name" : "Light.001",
            "rotation" : [
                0.16907575726509094,
                0.7558803558349609,
                -0.27217137813568115,
                0.570947527885437
            ],
            "translation" : [
                0.6563802361488342,
                4.329606056213379,
                3.7202954292297363
            ]
        },
        {
            "mesh" : 0,
            "name" : "Cube",
            "scale" : [
                8.009074211120605,
                4.505104064941406,
                2.3026742935180664
            ],
            "translation" : [
                0.6827301979064941,
                4.760046482086182,
                -0.5489041209220886
            ]
        },
        {
            "mesh" : 1,
            "name" : "Cube.001",
            "scale" : [
                8.009074211120605,
                4.505104064941406,
                2.3026742935180664
            ],
            "translation" : [
                0.6827301979064941,
                4.760046482086182,
                -0.5489041209220886
            ]
        }
    ],
    "materials" : [
        {
            "doubleSided" : true,
            "name" : "Material.003",
            "pbrMetallicRoughness" : {
                "baseColorFactor" : [
                    0.07222803682088852,
                    0.07318419218063354,
                    0.18781672418117523,
                    1
                ],
                "metallicFactor" : 0.5527281761169434,
                "roughnessFactor" : 0.6909090876579285
            }
        }
    ],
    "meshes" : [
        {
            "name" : "Cube.002",
            "primitives" : [
                {
                    "attributes" : {
                        "POSITION" : 0,
                        "NORMAL" : 1,
                        "TEXCOORD_0" : 2
                    },
                    "indices" : 3,
                    "material" : 0
                }
            ]
        },
        {
            "name" : "Cube.001",
            "primitives" : [
                {
                    "attributes" : {
                        "POSITION" : 4,
                        "NORMAL" : 5,
                        "TEXCOORD_0" : 6
                    },
                    "indices" : 7,
                    "material" : 0
                }
            ]
        }
    ],
    "accessors" : [
        {
            "bufferView" : 0,
            "componentType" : 5126,
            "count" : 410,
            "max" : [
                1,
                1,
                1.1072157621383667
            ],
            "min" : [
                -1,
                -1,
                -1
            ],
            "type" : "VEC3"
        },
        {
            "bufferView" : 1,
            "componentType" : 5126,
            "count" : 410,
            "type" : "VEC3"
        },
        {
            "bufferView" : 2,
            "componentType" : 5126,
            "count" : 410,
            "type" : "VEC2"
        },
        {
            "bufferView" : 3,
            "componentType" : 5123,
            "count" : 744,
            "type" : "SCALAR"
        },
        {
            "bufferView" : 4,
            "componentType" : 5126,
            "count" : 4,
            "max" : [
                0.8266456127166748,
                0.8703423738479614,
                -1
            ],
            "min" : [
                -0.8878295421600342,
                -0.8441329598426819,
                -1
            ],
            "type" : "VEC3"
        },
        {
            "bufferView" : 5,
            "componentType" : 5126,
            "count" : 4,
            "type" : "VEC3"
        },
        {
            "bufferView" : 6,
            "componentType" : 5126,
            "count" : 4,
            "type" : "VEC2"
        },
        {
            "bufferView" : 7,
            "componentType" : 5123,
            "count" : 6,
            "type" : "SCALAR"
        }
    ],
    "bufferViews" : [
        {
            "buffer" : 0,
            "byteLength" : 4920,
            "byteOffset" : 0
        },
        {
            "buffer" : 0,
            "byteLength" : 4920,
            "byteOffset" : 4920
        },
        {
            "buffer" : 0,
            "byteLength" : 3280,
            "byteOffset" : 9840
        },
        {
            "buffer" : 0,
            "byteLength" : 1488,
            "byteOffset" : 13120
        },
        {
            "buffer" : 0,
            "byteLength" : 48,
            "byteOffset" : 14608
        },
        {
            "buffer" : 0,
            "byteLength" : 48,
            "byteOffset" : 14656
        },
        {
            "buffer" : 0,
            "byteLength" : 32,
            "byteOffset" : 14704
        },
        {
            "buffer" : 0,
            "byteLength" : 12,
            "byteOffset" : 14736
        }
    ],
    "buffers" : [
        {
            "byteLength" : 14748,
            "uri" : "data:application/octet-stream;base64,"
        }
    ]
}
